<svg xmlns="http://www.w3.org/2000/svg" width="62" height="65" fill="none" role="img" aria-label="ESLint logo" style=""><rect id="backgroundrect" width="100%" height="100%" x="0" y="0" fill="none" stroke="none" class="" style=""/>
  
  
<g class="currentLayer" style=""><title>Layer 1</title><path d="M46.01268191812524,34.413709520409455 L40.66763045812523,20.956378660409456 C40.53361198712524,20.61963524140944 40.23006118412525,20.379581076409465 39.87149592312524,20.326779235409447 L25.544572863125246,18.227111495409446 C25.185387307125247,18.175094023409443 24.826041191125235,18.31673603940945 24.60087410612524,18.601461986409447 L15.619002506125234,29.959125106409445 C15.39445571612523,30.243066684409456 15.338824477125243,30.626167529409443 15.47222265312525,30.963695317409446 L20.817274113125244,44.42102617740946 C20.951292584125248,44.757769596409446 21.25484338712524,44.99782376140945 21.613408648125237,45.05062560240944 L35.94033170812525,47.150293342409455 C36.298896969125224,47.203095183409445 36.65807901112524,47.06004850340945 36.883246096125234,46.775322556409435 L45.86511769612524,35.41765943640944 C46.090284781125234,35.13293348940944 46.14608009412524,34.75123730840944 46.01268191812524,34.413709520409455 z" fill="#8080F2" id="logo-center" class="logo-component" style="transform-box: fill-box; transform-origin: 50% 50%;"/><path d="M6.1934030841252365,11.395593780409442 L34.11561794512525,0.24394733740943764 C35.12663257112524,-0.15748778059055735 36.34602844112523,-0.0792277605905698 37.20020628212524,0.5962734944094309 L60.70539210512523,19.184653759409443 C61.558785577125235,19.85953471940944 61.916755766125235,21.02868794440944 61.75913461212525,22.105004022409446 L57.37824675812523,51.800941992409435 C57.220625604125246,52.877258070409454 56.48247455412525,53.81065718040945 55.47083963312524,54.21287666740943 L27.68136790212524,65.19666814440947 C26.66973298112523,65.59888763140947 25.58167557712524,65.35293671940946 24.72828210512523,64.67805575940946 L1.223096282125244,46.089675494409434 C0.36891844112523486,45.414174239409434 -0.1290743438747588,44.42369307240945 0.029167105125242898,43.34659262540944 L4.3387210341252365,13.740857090409435 C4.49634218812524,12.66454101240943 5.181768163125241,11.797813267409438 6.1934030841252365,11.395593780409442 zM8.14967144212524,28.92365926040945 C7.912098457125239,29.224072587409452 7.8730829711252355,29.645811727409438 8.015017134125237,30.001564146409436 L16.15479532812524,50.47798594440944 C16.296729491125248,50.83373836340944 16.623026995125244,51.09178108340943 17.001129479125233,51.14728424940944 L38.81405028812523,54.35806761640944 C39.19293714112524,54.41419107740943 39.59511547412522,54.279648522409445 39.83268845912522,53.979235195409444 L53.493445244125226,36.705076708409436 C53.73163852412523,36.40387901240943 53.77160245312524,35.984164831409444 53.63028858512524,35.627628043409445 L45.49067446512525,15.152610909409432 C45.34936059712524,14.796074121409433 45.02384746212525,14.538651696409445 44.644340314125245,14.483312604409434 L22.83125543112523,11.271124573409438 C22.45174828312524,11.21578548140944 22.048621507125247,11.34830307740944 21.810428227125243,11.649500773409443 L8.14967144212524,28.92365926040945 z" fill="#4B32C3" class="logo-component" style="transform-box: fill-box; transform-origin: 50% 50%;" id="svg_1"/></g></svg>