<svg id="visual" viewBox="0 0 900 600" width="900" height="600" xmlns="http://www.w3.org/2000/svg" xmlns:xlink="http://www.w3.org/1999/xlink" version="1.1"><rect width="900" height="600" fill="#001829"></rect><g><g transform="translate(293 75)"><path d="M0 -40.2L34.8 -20.1L34.8 20.1L0 40.2L-34.8 20.1L-34.8 -20.1Z" fill="none" stroke="#297EA6" stroke-width="2"></path></g><g transform="translate(60 110)"><path d="M0 -21L18.2 -10.5L18.2 10.5L0 21L-18.2 10.5L-18.2 -10.5Z" fill="none" stroke="#297EA6" stroke-width="2"></path></g><g transform="translate(802 181)"><path d="M0 -38L32.9 -19L32.9 19L0 38L-32.9 19L-32.9 -19Z" fill="none" stroke="#297EA6" stroke-width="2"></path></g><g transform="translate(84 227)"><path d="M0 -10L8.7 -5L8.7 5L0 10L-8.7 5L-8.7 -5Z" stroke="#297EA6" fill="none" stroke-width="2"></path></g><g transform="translate(320 520)"><path d="M0 -29L25.1 -14.5L25.1 14.5L0 29L-25.1 14.5L-25.1 -14.5Z" stroke="#297EA6" fill="none" stroke-width="2"></path></g><g transform="translate(526 229)"><path d="M0 -11L9.5 -5.5L9.5 5.5L0 11L-9.5 5.5L-9.5 -5.5Z" stroke="#297EA6" fill="none" stroke-width="2"></path></g><g transform="translate(777 447)"><path d="M0 -27L23.4 -13.5L23.4 13.5L0 27L-23.4 13.5L-23.4 -13.5Z" stroke="#297EA6" fill="none" stroke-width="2"></path></g><g transform="translate(661 513)"><path d="M0 -21L18.2 -10.5L18.2 10.5L0 21L-18.2 10.5L-18.2 -10.5Z" stroke="#297EA6" fill="none" stroke-width="2"></path></g><g transform="translate(186 214)"><path d="M0 -22L19.1 -11L19.1 11L0 22L-19.1 11L-19.1 -11Z" stroke="#297EA6" fill="none" stroke-width="2"></path></g><g transform="translate(7 545)"><path d="M0 -26L22.5 -13L22.5 13L0 26L-22.5 13L-22.5 -13Z" stroke="#297EA6" fill="none" stroke-width="2"></path></g><g transform="translate(254 449)"><path d="M0 -18L15.6 -9L15.6 9L0 18L-15.6 9L-15.6 -9Z" stroke="#297EA6" fill="none" stroke-width="2"></path></g><g transform="translate(414 548)"><path d="M0 -25L21.7 -12.5L21.7 12.5L0 25L-21.7 12.5L-21.7 -12.5Z" stroke="#297EA6" fill="none" stroke-width="2"></path></g><g transform="translate(116 443)"><path d="M0 -25L21.7 -12.5L21.7 12.5L0 25L-21.7 12.5L-21.7 -12.5Z" stroke="#297EA6" fill="none" stroke-width="2"></path></g><g transform="translate(226 141)"><path d="M0 -35L30.3 -17.5L30.3 17.5L0 35L-30.3 17.5L-30.3 -17.5Z" stroke="#297EA6" fill="none" stroke-width="2"></path></g><g transform="translate(813 591)"><path d="M0 -25L21.7 -12.5L21.7 12.5L0 25L-21.7 12.5L-21.7 -12.5Z" stroke="#297EA6" fill="none" stroke-width="2"></path></g><g transform="translate(189 43)"><path d="M0 -27L23.4 -13.5L23.4 13.5L0 27L-23.4 13.5L-23.4 -13.5Z" stroke="#297EA6" fill="none" stroke-width="2"></path></g><g transform="translate(614 337)"><path d="M0 -20L17.3 -10L17.3 10L0 20L-17.3 10L-17.3 -10Z" stroke="#297EA6" fill="none" stroke-width="2"></path></g><g transform="translate(653 201)"><path d="M0 -27L23.4 -13.5L23.4 13.5L0 27L-23.4 13.5L-23.4 -13.5Z" stroke="#297EA6" fill="none" stroke-width="2"></path></g><g transform="translate(839 311)"><path d="M0 -11L9.5 -5.5L9.5 5.5L0 11L-9.5 5.5L-9.5 -5.5Z" stroke="#297EA6" fill="none" stroke-width="2"></path></g><g transform="translate(7 426)"><path d="M0 -37L32 -18.5L32 18.5L0 37L-32 18.5L-32 -18.5Z" stroke="#297EA6" fill="none" stroke-width="2"></path></g><g transform="translate(538 39)"><path d="M0 -34L29.4 -17L29.4 17L0 34L-29.4 17L-29.4 -17Z" stroke="#297EA6" fill="none" stroke-width="2"></path></g><g transform="translate(842 52)"><path d="M0 -33L28.6 -16.5L28.6 16.5L0 33L-28.6 16.5L-28.6 -16.5Z" stroke="#297EA6" fill="none" stroke-width="2"></path></g><g transform="translate(633 591)"><path d="M0 -23L19.9 -11.5L19.9 11.5L0 23L-19.9 11.5L-19.9 -11.5Z" stroke="#297EA6" fill="none" stroke-width="2"></path></g><g transform="translate(251 587)"><path d="M0 -23L19.9 -11.5L19.9 11.5L0 23L-19.9 11.5L-19.9 -11.5Z" stroke="#297EA6" fill="none" stroke-width="2"></path></g><g transform="translate(516 544)"><path d="M0 -32L27.7 -16L27.7 16L0 32L-27.7 16L-27.7 -16Z" stroke="#297EA6" fill="none" stroke-width="2"></path></g><g transform="translate(446 219)"><path d="M0 -28L24.2 -14L24.2 14L0 28L-24.2 14L-24.2 -14Z" stroke="#297EA6" fill="none" stroke-width="2"></path></g><g transform="translate(765 266)"><path d="M0 -29L25.1 -14.5L25.1 14.5L0 29L-25.1 14.5L-25.1 -14.5Z" stroke="#297EA6" fill="none" stroke-width="2"></path></g><g transform="translate(508 404)"><path d="M0 -34L29.4 -17L29.4 17L0 34L-29.4 17L-29.4 -17Z" stroke="#297EA6" fill="none" stroke-width="2"></path></g><g transform="translate(730 28)"><path d="M0 -37L32 -18.5L32 18.5L0 37L-32 18.5L-32 -18.5Z" stroke="#297EA6" fill="none" stroke-width="2"></path></g><g transform="translate(281 295)"><path d="M0 -5L4.3 -2.5L4.3 2.5L0 5L-4.3 2.5L-4.3 -2.5Z" stroke="#297EA6" fill="none" stroke-width="2"></path></g><g transform="translate(859 403)"><path d="M0 -22L19.1 -11L19.1 11L0 22L-19.1 11L-19.1 -11Z" stroke="#297EA6" fill="none" stroke-width="2"></path></g><g transform="translate(11 177)"><path d="M0 -7L6.1 -3.5L6.1 3.5L0 7L-6.1 3.5L-6.1 -3.5Z" stroke="#297EA6" fill="none" stroke-width="2"></path></g><g transform="translate(306 384)"><path d="M0 -8L6.9 -4L6.9 4L0 8L-6.9 4L-6.9 -4Z" stroke="#297EA6" fill="none" stroke-width="2"></path></g><g transform="translate(395 6)"><path d="M0 -10L8.7 -5L8.7 5L0 10L-8.7 5L-8.7 -5Z" stroke="#297EA6" fill="none" stroke-width="2"></path></g><g transform="translate(436 100)"><path d="M0 -39L33.8 -19.5L33.8 19.5L0 39L-33.8 19.5L-33.8 -19.5Z" stroke="#297EA6" fill="none" stroke-width="2"></path></g><g transform="translate(639 53)"><path d="M0 -27L23.4 -13.5L23.4 13.5L0 27L-23.4 13.5L-23.4 -13.5Z" stroke="#297EA6" fill="none" stroke-width="2"></path></g><g transform="translate(69 21)"><path d="M0 -11L9.5 -5.5L9.5 5.5L0 11L-9.5 5.5L-9.5 -5.5Z" stroke="#297EA6" fill="none" stroke-width="2"></path></g><g transform="translate(225 354)"><path d="M0 -25L21.7 -12.5L21.7 12.5L0 25L-21.7 12.5L-21.7 -12.5Z" stroke="#297EA6" fill="none" stroke-width="2"></path></g><g transform="translate(36 337)"><path d="M0 -33L28.6 -16.5L28.6 16.5L0 33L-28.6 16.5L-28.6 -16.5Z" stroke="#297EA6" fill="none" stroke-width="2"></path></g><g transform="translate(346 138)"><path d="M0 -21L18.2 -10.5L18.2 10.5L0 21L-18.2 10.5L-18.2 -10.5Z" stroke="#297EA6" fill="none" stroke-width="2"></path></g><g transform="translate(395 459)"><path d="M0 -25L21.7 -12.5L21.7 12.5L0 25L-21.7 12.5L-21.7 -12.5Z" stroke="#297EA6" fill="none" stroke-width="2"></path></g><g transform="translate(574 471)"><path d="M0 -11L9.5 -5.5L9.5 5.5L0 11L-9.5 5.5L-9.5 -5.5Z" stroke="#297EA6" fill="none" stroke-width="2"></path></g><g transform="translate(659 429)"><path d="M0 -12L10.4 -6L10.4 6L0 12L-10.4 6L-10.4 -6Z" stroke="#297EA6" fill="none" stroke-width="2"></path></g><g transform="translate(162 530)"><path d="M0 -30L26 -15L26 15L0 30L-26 15L-26 -15Z" stroke="#297EA6" fill="none" stroke-width="2"></path></g><g transform="translate(715 371)"><path d="M0 -32L27.7 -16L27.7 16L0 32L-27.7 16L-27.7 -16Z" stroke="#297EA6" fill="none" stroke-width="2"></path></g><g transform="translate(373 281)"><path d="M0 -23L19.9 -11.5L19.9 11.5L0 23L-19.9 11.5L-19.9 -11.5Z" stroke="#297EA6" fill="none" stroke-width="2"></path></g><g transform="translate(149 117)"><path d="M0 -7L6.1 -3.5L6.1 3.5L0 7L-6.1 3.5L-6.1 -3.5Z" stroke="#297EA6" fill="none" stroke-width="2"></path></g><g transform="translate(713 576)"><path d="M0 -36L31.2 -18L31.2 18L0 36L-31.2 18L-31.2 -18Z" stroke="#297EA6" fill="none" stroke-width="2"></path></g><g transform="translate(597 128)"><path d="M0 -22L19.1 -11L19.1 11L0 22L-19.1 11L-19.1 -11Z" stroke="#297EA6" fill="none" stroke-width="2"></path></g><g transform="translate(132 319)"><path d="M0 -19L16.5 -9.5L16.5 9.5L0 19L-16.5 9.5L-16.5 -9.5Z" stroke="#297EA6" fill="none" stroke-width="2"></path></g><g transform="translate(494 313)"><path d="M0 -33L28.6 -16.5L28.6 16.5L0 33L-28.6 16.5L-28.6 -16.5Z" stroke="#297EA6" fill="none" stroke-width="2"></path></g><g transform="translate(874 502)"><path d="M0 -12L10.4 -6L10.4 6L0 12L-10.4 6L-10.4 -6Z" stroke="#297EA6" fill="none" stroke-width="2"></path></g><g transform="translate(700 106)"><path d="M0 -28L24.2 -14L24.2 14L0 28L-24.2 14L-24.2 -14Z" stroke="#297EA6" fill="none" stroke-width="2"></path></g><g transform="translate(888 193)"><path d="M0 -13L11.3 -6.5L11.3 6.5L0 13L-11.3 6.5L-11.3 -6.5Z" stroke="#297EA6" fill="none" stroke-width="2"></path></g><g transform="translate(2 261)"><path d="M0 -30L26 -15L26 15L0 30L-26 15L-26 -15Z" stroke="#297EA6" fill="none" stroke-width="2"></path></g><g transform="translate(290 212)"><path d="M0 -39L33.8 -19.5L33.8 19.5L0 39L-33.8 19.5L-33.8 -19.5Z" stroke="#297EA6" fill="none" stroke-width="2"></path></g><g transform="translate(400 367)"><path d="M0 -26L22.5 -13L22.5 13L0 26L-22.5 13L-22.5 -13Z" stroke="#297EA6" fill="none" stroke-width="2"></path></g><g transform="translate(93 594)"><path d="M0 -11L9.5 -5.5L9.5 5.5L0 11L-9.5 5.5L-9.5 -5.5Z" stroke="#297EA6" fill="none" stroke-width="2"></path></g><g transform="translate(499 150)"><path d="M0 -18L15.6 -9L15.6 9L0 18L-15.6 9L-15.6 -9Z" stroke="#297EA6" fill="none" stroke-width="2"></path></g><g transform="translate(684 280)"><path d="M0 -18L15.6 -9L15.6 9L0 18L-15.6 9L-15.6 -9Z" stroke="#297EA6" fill="none" stroke-width="2"></path></g></g></svg>