<?xml version="1.0" encoding="UTF-8" standalone="no" ?>
<!DOCTYPE svg PUBLIC "-//W3C//DTD SVG 1.1//EN" "http://www.w3.org/Graphics/SVG/1.1/DTD/svg11.dtd">
<svg xmlns="http://www.w3.org/2000/svg" xmlns:xlink="http://www.w3.org/1999/xlink" version="1.1" width="1080" height="1080" viewBox="0 0 1080 1080" xml:space="preserve">
<desc>Created with Fabric.js 5.2.4</desc>
<defs>
</defs>
<g transform="matrix(1 0 0 1 540 540)" id="d2b84965-ea8e-48e3-b295-4e5283778902"  >
<rect style="stroke: none; stroke-width: 1; stroke-dasharray: none; stroke-linecap: butt; stroke-dashoffset: 0; stroke-linejoin: miter; stroke-miterlimit: 4; fill: rgb(255,255,255); fill-rule: nonzero; opacity: 1; visibility: hidden;" vector-effect="non-scaling-stroke"  x="-540" y="-540" rx="0" ry="0" width="1080" height="1080" />
</g>
<g transform="matrix(1 0 0 1 540 540)" id="dd4c016c-dd2b-416e-937e-25df71602f83"  >
</g>
<g transform="matrix(20.84 0 0 20.84 540 540)" id="path0"  >
<path style="stroke: none; stroke-width: 1; stroke-dasharray: none; stroke-linecap: butt; stroke-dashoffset: 0; stroke-linejoin: miter; stroke-miterlimit: 4; fill: rgb(55,55,55); fill-rule: evenodd; opacity: 1;"  transform=" translate(-35.49, -31.83)" d="M 33.346 8.677 C 33.126 8.765 32.264 8.883 31.429 8.939 C 30.511 9 29.636 9.163 29.212 9.352 C 28.828 9.523 28.342 9.663 28.132 9.663 C 27.386 9.663 24.612 10.884 23.127 11.865 C 22.878 12.029 22.563 12.163 22.427 12.163 C 22.29 12.163 22.118 12.269 22.045 12.398 C 21.972 12.527 21.238 13.171 20.415 13.828 C 18.93 15.015 17.885 16.037 17.245 16.928 C 16.843 17.488 16.239 18.221 15.621 18.9 C 15.37 19.176 15.082 19.648 14.983 19.949 C 14.884 20.25 14.739 20.497 14.662 20.497 C 14.585 20.497 14.473 20.716 14.414 20.985 C 14.355 21.254 14.199 21.563 14.068 21.672 C 13.936 21.781 13.828 21.947 13.828 22.04 C 13.828 22.134 13.688 22.518 13.515 22.895 C 13.343 23.272 13.127 23.88 13.034 24.247 C 12.941 24.613 12.787 25.138 12.692 25.413 C 11.808 27.97 11.794 28.09 11.865 32.361 C 11.921 35.703 11.982 36.522 12.214 37.033 C 12.369 37.374 12.495 37.843 12.495 38.075 C 12.495 38.308 12.645 38.778 12.828 39.12 C 13.012 39.462 13.162 39.891 13.162 40.073 C 13.162 41.902 17.322 47.647 20.47 50.166 C 20.869 50.486 21.319 50.863 21.47 51.004 C 21.621 51.146 21.933 51.354 22.162 51.466 C 22.391 51.578 22.878 51.852 23.245 52.075 C 23.612 52.298 24.024 52.528 24.162 52.586 C 24.61 52.774 25.073 52.991 25.328 53.134 C 26.187 53.614 26.773 53.844 27.384 53.939 C 27.766 53.999 28.34 54.186 28.659 54.355 C 28.979 54.525 29.471 54.663 29.752 54.663 C 30.034 54.663 30.41 54.773 30.588 54.908 C 30.866 55.118 32.831 55.153 44.622 55.158 L 58.332 55.163 L 58.288 47.705 L 58.245 40.247 L 46.162 40.163 C 36.928 40.1 33.992 40.031 33.714 39.872 C 33.514 39.757 33.176 39.663 32.963 39.663 C 32.127 39.663 29.151 37.689 28.789 36.894 C 28.69 36.676 28.549 36.497 28.477 36.497 C 28.405 36.497 28.234 36.29 28.096 36.038 C 26.998 34.034 26.563 31.534 27.072 30.163 C 27.226 29.751 27.414 29.164 27.492 28.859 C 27.569 28.555 27.751 28.174 27.897 28.013 C 28.043 27.852 28.162 27.636 28.162 27.533 C 28.162 27.431 28.263 27.287 28.387 27.213 C 28.511 27.14 28.701 26.912 28.809 26.707 C 29.035 26.276 31.104 24.663 31.431 24.663 C 31.552 24.663 31.972 24.495 32.365 24.288 C 33.188 23.856 52.715 23.579 53.481 23.989 C 53.807 24.163 53.824 24.339 53.867 27.876 L 53.912 31.58 L 56.078 31.58 L 58.245 31.58 L 58.245 25.413 L 58.245 19.247 L 45.245 19.247 C 33.178 19.247 32.207 19.268 31.712 19.538 C 31.418 19.699 30.991 19.83 30.762 19.83 C 30.384 19.83 29.226 20.349 28.433 20.873 C 27.253 21.653 25.328 23.238 25.328 23.429 C 25.328 23.487 25.047 23.882 24.703 24.307 C 23.735 25.504 22.948 27.261 22.537 29.141 C 22.04 31.416 22.21 34.062 22.994 36.247 C 23.393 37.358 23.445 37.472 23.916 38.247 C 24.139 38.613 24.417 39.101 24.533 39.33 C 24.839 39.93 27.036 42.09 27.681 42.423 C 27.982 42.579 28.331 42.809 28.457 42.935 C 28.583 43.061 28.762 43.163 28.856 43.163 C 28.949 43.163 29.216 43.313 29.45 43.497 C 29.683 43.68 30.026 43.83 30.213 43.83 C 30.399 43.83 30.67 43.935 30.815 44.063 C 31.425 44.604 33.303 44.716 43.412 44.815 C 48.912 44.869 53.505 44.974 53.62 45.048 C 53.771 45.146 53.828 45.865 53.828 47.677 L 53.828 50.172 L 53.38 50.342 C 52.54 50.661 31.181 50.47 30.578 50.138 C 30.303 49.986 29.778 49.786 29.412 49.694 C 28.387 49.437 27.273 48.996 26.982 48.734 C 26.837 48.603 26.63 48.497 26.522 48.497 C 26.414 48.497 25.932 48.222 25.452 47.885 C 22.937 46.125 22.152 45.44 20.981 43.986 C 20.668 43.596 20.28 43.139 20.12 42.971 C 19.96 42.802 19.828 42.592 19.828 42.505 C 19.828 42.418 19.727 42.287 19.603 42.213 C 19.365 42.072 19.233 41.843 18.358 40.049 C 18.053 39.424 17.697 38.714 17.566 38.471 C 17.435 38.228 17.328 37.831 17.328 37.589 C 17.328 37.348 17.167 36.834 16.97 36.448 C 16.484 35.496 16.423 28.593 16.892 27.652 C 17.044 27.348 17.215 26.795 17.273 26.423 C 17.331 26.051 17.518 25.485 17.687 25.166 C 17.856 24.846 17.995 24.499 17.995 24.395 C 17.995 24.29 18.103 24.115 18.234 24.006 C 18.366 23.896 18.523 23.582 18.583 23.307 C 18.644 23.032 18.799 22.767 18.927 22.718 C 19.056 22.668 19.162 22.486 19.162 22.312 C 19.162 22.139 19.299 21.86 19.466 21.692 C 19.633 21.525 19.819 21.262 19.878 21.109 C 19.936 20.956 20.049 20.83 20.128 20.83 C 20.207 20.83 20.527 20.474 20.839 20.038 C 21.423 19.222 22.125 18.494 22.887 17.913 C 23.128 17.73 23.522 17.407 23.763 17.195 C 24.679 16.389 28.083 14.503 28.642 14.491 C 28.79 14.488 29.212 14.34 29.578 14.163 C 29.945 13.986 30.395 13.838 30.578 13.834 C 30.762 13.83 31.287 13.7 31.745 13.546 C 32.491 13.295 33.931 13.258 45.453 13.202 L 58.328 13.14 L 58.328 10.818 L 58.328 8.497 L 46.037 8.507 C 38.619 8.514 33.587 8.581 33.346 8.677 M 59.141 28.489 C 58.8 28.95 58.785 29.093 58.896 30.78" stroke-linecap="round" />
</g>
</svg>